<svg width="1667" height="1479" viewBox="0 0 1667 1479" fill="none" xmlns="http://www.w3.org/2000/svg">
<path d="M1630.7 558.085H461.582L552.803 540.261L662.51 518.842C662.528 518.842 662.547 518.824 662.565 518.824L888.442 474.715L898.574 472.743L1224.06 409.17C1224.08 409.17 1224.12 409.17 1224.14 409.17L1261.11 401.944L1609.27 333.948C1618.71 332.104 1627.05 326.575 1632.42 318.63C1637.79 310.686 1639.75 300.917 1637.92 291.535L1586.15 29.2062C1582.28 9.59421 1563.13 -3.17938 1543.53 0.691405L1333.69 41.6849L1300.91 48.0809C1300.89 48.0809 1300.89 48.0809 1300.87 48.0993L1020.84 102.806L965.272 113.645C965.235 113.645 965.216 113.663 965.179 113.682L718.557 161.845L629.614 179.208C629.559 179.208 629.522 179.245 629.485 179.245L403.774 223.335C403.756 223.335 403.737 223.335 403.7 223.335L293.975 244.754C293.92 244.772 293.864 244.809 293.79 244.809L29.3316 296.475C9.6611 300.327 -3.15619 319.294 0.677881 338.888L51.2617 595.428V1442.87C51.2617 1462.83 67.5242 1479 87.5651 1479H1630.7C1650.74 1479 1667 1462.83 1667 1442.87V594.212C1667 574.25 1650.74 558.085 1630.7 558.085ZM583.865 261.804L517.611 473.499L372.676 501.811L438.911 290.116L583.865 261.804ZM919.504 196.24L853.25 407.953L708.296 436.265L774.605 224.552L919.504 196.24ZM1255.16 130.676L1188.94 342.39L1043.99 370.702L1110.28 158.988L1255.16 130.676ZM1559.68 269.969L1300.91 318.63L1445.88 93.4244L1521.92 78.5679L1559.68 269.969ZM333.5 305.138L181.991 539.044L116.682 551.799L78.9338 360.435L333.5 305.138ZM1594.39 1406.73H123.905V630.339H1594.39V1406.73Z" fill="#57EBFF"/>
<path d="M667 739C655.954 739 647 747.954 647 759V781.5C647 792.546 655.954 801.5 667 801.5H1000C1011.05 801.5 1020 792.546 1020 781.5V759C1020 747.954 1011.05 739 1000 739H667Z" fill="#57EBFF" stroke="#57EBFF"/>
</svg>
