<svg width="1667" height="1479" viewBox="0 0 1667 1479" fill="none" xmlns="http://www.w3.org/2000/svg">
<path d="M1518.82 726.166C1511.1 560.693 1442.42 420.52 1312.76 305.646C1183.11 190.773 1024.9 129.917 838.131 123.079V0C949.264 2.73509 1053.84 23.5902 1151.85 62.5652C1249.86 101.54 1335.92 153.849 1410 219.491C1484.09 285.133 1543.13 361.374 1587.12 448.213C1631.11 535.052 1654.65 627.703 1657.74 726.166H1518.82ZM1127.54 726.166C1119.82 657.789 1088.95 600.01 1034.93 552.83C980.906 505.65 915.306 478.641 838.131 471.803V348.724C953.894 355.562 1052.29 394.537 1133.33 465.649C1214.36 536.761 1258.74 623.601 1266.46 726.166H1127.54ZM1562.81 1479C1374.5 1479 1187.35 1437.97 1001.36 1355.92C815.364 1273.87 648.278 1167.2 500.1 1035.92C351.922 904.631 231.528 756.594 138.917 591.805C46.3056 427.016 0 261.201 0 94.3606C0 67.9861 9.9225 46.0076 29.7675 28.4251C49.6125 10.8426 74.4192 2.05132 104.188 2.05132H428.326C449.335 2.05132 468.094 8.54716 484.602 21.5388C501.108 34.5305 511.676 51.9667 516.307 73.8474L578.819 332.313C581.906 351.459 581.521 368.895 577.662 384.622C573.803 400.349 565.7 413.682 553.351 424.623L321.824 631.806C408.261 758.988 505.116 869.759 612.391 964.119C719.666 1058.48 841.218 1138.48 977.047 1204.12L1197 1003.09C1212.43 988.051 1230.18 977.453 1250.25 971.299C1270.32 965.145 1290.38 964.119 1310.45 968.222L1585.97 1021.56C1609.6 1026.17 1629.01 1036.56 1644.21 1052.71C1659.4 1068.87 1667 1087.88 1667 1109.76V1386.69C1667 1413.07 1657.08 1435.04 1637.23 1452.63C1617.39 1470.21 1592.58 1479 1562.81 1479ZM252.365 518.983L439.903 350.775L386.651 125.13H138.917C138.917 178.465 148.178 236.927 166.7 300.518C185.222 364.109 213.777 436.931 252.365 518.983ZM1106.7 1263.61C1169.99 1289.59 1238.67 1310.79 1312.76 1327.2C1386.85 1343.61 1458.63 1353.19 1528.08 1355.92V1136.43L1289.61 1093.35L1106.7 1263.61Z" fill="#57EBFF"/>
</svg>
